# xmcd
#
# Track frame offsets:
#	150
#	19646
#	41143
#	66811
#	86392
#	98926
#	118211
#	140924
#	154643
#	171148
#	192016
#	209120
#	227801
#	246040
#	263336
#	286500
#	303022
#	320542
#	340846
#
# Disc length: 4807 seconds
#
# Revision: 1
# Processed by: cddbd v1.5.2PL0 Copyright (c) Steve Scherf et al.
# Submitted via: audiograbber 1.80
#
DISCID=0512c513
DTITLE=Snoop Dogg - Tha Blue Carpet Treatment
DYEAR=1900
DGENRE=
TTITLE0=Real Talk (R.I.P. Tookie)
TTITLE1=Vato feat. B-Real
TTITLE2=My Peoples
TTITLE3=Smokin Smokin Weed feat. Nate Dogg and Ray J
TTITLE4=I Don't Give A Fuck feat. Guerilla Black
TTITLE5=Keep Bouncin feat. Too Short
TTITLE6=Just Tha Way U Like It
TTITLE7=Get Rich
TTITLE8=Which One Of U
TTITLE9=Runnin Yo Mouth feat. Notorious B.I.G. and Fabolous
TTITLE10=Sexy Girl feat. Trina
TTITLE11=Gotta Lotta That feat. Ice Cube
TTITLE12=That Girl feat. Pharrell
TTITLE13=Do It 2 Me feat. Usher
TTITLE14=Just Watchin feat. 2Pac and DPG
TTITLE15=Get 2 Know Ya
TTITLE16=Come Wit Me
TTITLE17=Candy feat. E40, Mc 8, Goldie Loc, Daz and Kurupt
TTITLE18=I Wanna Fuck You
EXTD=
EXTT0=
EXTT1=
EXTT2=
EXTT3=
EXTT4=
EXTT5=
EXTT6=
EXTT7=
EXTT8=
EXTT9=
EXTT10=
EXTT11=
EXTT12=
EXTT13=
EXTT14=
EXTT15=
EXTT16=
EXTT17=
EXTT18=
PLAYORDER=
